# xmcd
#
# Track frame offsets: 
#        300
#        11397
#        25348
#        37517
#        49202
#        60967
#        73822
#        87213
#        99723
#        112188
#        121718
#        135551
#        148590
#        161984
#        175086
#        187143
#        197397
#        208177
#        219079
#        231610
#        243922
#        256704
#        268960
#
# Disc length: 3733 seconds
#
# Revision: 1
# Processed by: cddbd v1.5.2PL0 Copyright (c) Steve Scherf et al.
# Submitted via: ExactAudioCopy v1.0b1
#
DISCID=490e9117
DTITLE=Big Mama Thornton - They called me Big Mama
DYEAR=2005
DGENRE=Blues
TTITLE0=All right Baby
TTITLE1=Bad luck got my man
TTITLE2=Partnership Blues
TTITLE3=Mischievous Boogie
TTITLE4=I'm all fed up
TTITLE5=Cotton picking Blues
TTITLE6=Everytime I think of you
TTITLE7=No jody for me
TTITLE8=Let your tears fall Baby
TTITLE9=They call me Big Mama
TTITLE10=Walking Blues
TTITLE11=Hound dog
TTITLE12=Just can't help myself
TTITLE13=Nightmare
TTITLE14=Rockabye baby
TTITLE15=Hard times
TTITLE16=I've searched the world over
TTITLE17=I ain't no fool either
TTITLE18=The big change
TTITLE19=I smell a rat
TTITLE20=Yes Baby
TTITLE21=Willie Mae's Blues
TTITLE22=Stop hoppin' on me
EXTD=
EXTT0=
EXTT1=
EXTT2=
EXTT3=
EXTT4=
EXTT5=
EXTT6=
EXTT7=
EXTT8=
EXTT9=
EXTT10=
EXTT11=
EXTT12=
EXTT13=
EXTT14=
EXTT15=
EXTT16=
EXTT17=
EXTT18=
EXTT19=
EXTT20=
EXTT21=
EXTT22=
PLAYORDER=
